<svg width="20" height="20" viewBox="0 0 20 20" fill="none" xmlns="http://www.w3.org/2000/svg">
<path d="M9.99998 13.3333C9.80527 13.3337 9.61658 13.2659 9.46665 13.1417L4.46665 8.975C4.11227 8.68045 4.06377 8.15438 4.35832 7.8C4.65287 7.44562 5.17893 7.39712 5.53332 7.69167L9.99998 11.425L14.4667 7.825C14.6388 7.68519 14.8596 7.61978 15.0801 7.64324C15.3007 7.6667 15.5028 7.7771 15.6417 7.95C15.7959 8.12322 15.871 8.3529 15.8489 8.5838C15.8267 8.8147 15.7094 9.02593 15.525 9.16667L10.525 13.1917C10.3707 13.2963 10.1859 13.3461 9.99998 13.3333Z" fill="#636F82"/>
</svg>
