<svg width="21" height="20" viewBox="0 0 21 20" fill="none" xmlns="http://www.w3.org/2000/svg">
<path d="M10.3333 13.3333C10.1386 13.3337 9.94992 13.2659 9.79999 13.1417L4.79999 8.97499C4.44561 8.68044 4.39711 8.15438 4.69166 7.79999C4.98621 7.44561 5.51228 7.39711 5.86666 7.69166L10.3333 11.425L14.8 7.82499C14.9722 7.68519 15.1929 7.61977 15.4135 7.64323C15.634 7.66669 15.8361 7.77709 15.975 7.94999C16.1293 8.12321 16.2044 8.35289 16.1822 8.58379C16.1601 8.81469 16.0427 9.02592 15.8583 9.16666L10.8583 13.1917C10.7041 13.2963 10.5192 13.3461 10.3333 13.3333Z" fill="#253A64"/>
</svg>
