<svg width="20" height="20" viewBox="0 0 20 20" fill="none" xmlns="http://www.w3.org/2000/svg">
<path d="M9.99998 13.3333C9.80527 13.3337 9.61658 13.2659 9.46665 13.1417L4.46665 8.97499C4.11227 8.68044 4.06377 8.15438 4.35832 7.79999C4.65287 7.44561 5.17893 7.39711 5.53332 7.69166L9.99998 11.425L14.4667 7.82499C14.6388 7.68519 14.8596 7.61977 15.0801 7.64323C15.3007 7.66669 15.5028 7.77709 15.6417 7.94999C15.7959 8.12321 15.871 8.35289 15.8489 8.58379C15.8267 8.81469 15.7094 9.02592 15.525 9.16666L10.525 13.1917C10.3707 13.2963 10.1859 13.3461 9.99998 13.3333Z" fill="#636F82"/>
</svg>
