<svg width="17" height="17" viewBox="0 0 17 17" fill="none" xmlns="http://www.w3.org/2000/svg">
<path d="M8.08158 0.833332C8.73748 0.833289 9.36853 1.08424 9.84528 1.5347C10.322 1.98517 10.6083 2.60099 10.6455 3.25585L10.6494 3.40123H14.7975C14.9476 3.40128 15.0921 3.45832 15.2018 3.56082C15.3115 3.66332 15.3782 3.80364 15.3885 3.95343C15.3987 4.10323 15.3517 4.25132 15.257 4.36779C15.1622 4.48426 15.0268 4.56042 14.878 4.58089L14.7975 4.58642H14.1685L13.1572 14.8738C13.1065 15.3867 12.8752 15.8649 12.5046 16.2229C12.1339 16.581 11.6481 16.7957 11.1338 16.8286L10.9947 16.8333H5.16847C4.6529 16.8333 4.15413 16.65 3.76131 16.316C3.36848 15.9821 3.10719 15.5194 3.02414 15.0105L3.00596 14.873L1.99384 4.58642H1.36571C1.22251 4.58641 1.08416 4.53455 0.976244 4.44043C0.868325 4.34631 0.798138 4.21629 0.778663 4.07442L0.773132 3.99383C0.773138 3.85063 0.824997 3.71227 0.919117 3.60435C1.01324 3.49643 1.14325 3.42624 1.28512 3.40676L1.36571 3.40123H5.51375C5.51375 2.72018 5.78429 2.06703 6.26585 1.58545C6.74741 1.10388 7.40055 0.833332 8.08158 0.833332V0.833332ZM12.9779 4.58642H3.18453L4.18559 14.7569C4.20775 14.9838 4.30775 15.1961 4.46862 15.3577C4.62949 15.5193 4.8413 15.6202 5.06813 15.6434L5.16847 15.6481H10.9947C11.4688 15.6481 11.8709 15.3123 11.9626 14.8564L11.9784 14.7569L12.9771 4.58642H12.9779ZM9.46426 6.75926C9.60746 6.75926 9.74581 6.81112 9.85373 6.90525C9.96165 6.99937 10.0318 7.12939 10.0513 7.27126L10.0568 7.35185V12.8827C10.0568 13.0329 9.99976 13.1774 9.89726 13.2871C9.79476 13.3968 9.65444 13.4635 9.50465 13.4737C9.35486 13.484 9.20678 13.437 9.09031 13.3422C8.97384 13.2475 8.89768 13.112 8.87722 12.9633L8.87169 12.8827V7.35185C8.87169 7.19469 8.93412 7.04396 9.04525 6.93282C9.15638 6.82169 9.3071 6.75926 9.46426 6.75926ZM6.6989 6.75926C6.8421 6.75926 6.98045 6.81112 7.08837 6.90525C7.19629 6.99937 7.26648 7.12939 7.28595 7.27126L7.29148 7.35185V12.8827C7.29143 13.0329 7.2344 13.1774 7.1319 13.2871C7.0294 13.3968 6.88908 13.4635 6.73929 13.4737C6.5895 13.484 6.44142 13.437 6.32495 13.3422C6.20848 13.2475 6.13232 13.112 6.11186 12.9633L6.10633 12.8827V7.35185C6.10633 7.19469 6.16876 7.04396 6.27989 6.93282C6.39102 6.82169 6.54174 6.75926 6.6989 6.75926ZM8.08158 2.01852C7.73458 2.01853 7.40026 2.14902 7.145 2.38409C6.88974 2.61916 6.7322 2.94162 6.70364 3.28746L6.6989 3.40123H9.46426C9.46426 3.03451 9.31859 2.68282 9.05929 2.42351C8.79998 2.1642 8.44829 2.01852 8.08158 2.01852Z" fill="#636F82"/>
</svg>
