<svg width="20" height="20" viewBox="0 0 20 20" fill="none" xmlns="http://www.w3.org/2000/svg">
<path fill-rule="evenodd" clip-rule="evenodd" d="M11.4047 17.7224L17.6686 11.6734C18.5334 10.8382 18.5575 9.46009 17.7223 8.59523L11.6734 2.33138C10.8382 1.46652 9.46004 1.44247 8.59519 2.27765L2.33134 8.32658C1.46648 9.16176 1.44243 10.5399 2.27761 11.4048L8.32654 17.6686C9.16172 18.5335 10.5399 18.5575 11.4047 17.7224ZM3.32158 10.3966C3.04319 10.1083 3.05121 9.64895 3.33949 9.37055L9.60334 3.32163C9.89163 3.04323 10.351 3.05125 10.6294 3.33954L16.6783 9.60338C16.9567 9.89167 16.9487 10.3511 16.6604 10.6294L10.3966 16.6784C10.1083 16.9568 9.64891 16.9488 9.37051 16.6605L3.32158 10.3966Z" fill="#253A64"/>
</svg>
